<svg width="48" height="48" viewBox="0 0 48 48" fill="none" xmlns="http://www.w3.org/2000/svg">
<path d="M36.9289 33.3866C36.7426 32.8119 36.7427 32.2061 36.991 31.6625C37.6274 30.2956 37.9997 28.7424 37.9997 27.1271C37.9997 22.514 35.1284 18.5688 31.062 17L31.0574 17.0063C31.5261 18.2209 31.7914 19.5349 31.7914 20.9126C31.7914 26.9159 26.9287 31.7836 20.9283 31.7836C19.547 31.7836 18.2263 31.5056 17.011 31.0303L17 31.0412C18.5676 35.1107 22.5099 37.9996 27.1352 37.9996C28.7493 37.9996 30.3013 37.6268 31.6671 36.99C32.2103 36.7415 32.8158 36.7415 33.3901 36.9279L36.401 37.9375C37.3478 38.2482 38.248 37.3472 37.9376 36.3998L36.9289 33.3866Z" fill="#2680EB"/>
<path d="M32 20.9971C32 19.6016 31.7298 18.2722 31.2568 17.0449C29.6678 12.9261 25.6802 10 21.0013 10C14.9268 10 10.0012 14.925 10.0012 20.9986C10.0012 22.6361 10.3674 24.1997 11.0165 25.5935C11.2726 26.131 11.2728 26.7548 11.0905 27.3284L10.0641 30.3833C9.74661 31.3371 10.663 32.2534 11.617 31.9359L14.6724 30.9097C15.2461 30.7259 15.8701 30.7259 16.4076 30.9836C16.6119 31.0779 16.8255 31.1533 17.0361 31.2366C18.2667 31.7175 19.6041 31.9987 21.0029 31.9987C27.0743 31.9956 32 27.0707 32 20.9971Z" fill="#A1C6F1"/>
</svg>
