<svg width="57" height="56" viewBox="0 0 57 56" fill="none" xmlns="http://www.w3.org/2000/svg">
<rect x="1" y="0.5" width="55" height="55" rx="19.5" stroke="#0BAB7C"/>
<path d="M29.2218 22.9799C30.9989 22.9799 32.1977 23.7475 32.8812 24.389L35.5521 21.781C33.9117 20.2562 31.777 19.3203 29.2218 19.3203C25.5203 19.3203 22.3236 21.4445 20.7673 24.5362L23.8273 26.9128C24.595 24.6309 26.7191 22.9799 29.2218 22.9799Z" fill="#0BAB7C"/>
<path d="M38.3071 28.995C38.3071 28.2168 38.244 27.649 38.1073 27.0601H29.2218V30.5724H34.4374C34.3323 31.4452 33.7644 32.7597 32.5026 33.6431L35.489 35.9566C37.2766 34.3056 38.3071 31.8764 38.3071 28.995Z" fill="#0BAB7C"/>
<path d="M23.8378 30.6565C23.638 30.0676 23.5224 29.4367 23.5224 28.7847C23.5224 28.1327 23.638 27.5017 23.8273 26.9128L20.7673 24.5362C20.1259 25.8192 19.7578 27.2598 19.7578 28.7847C19.7578 30.3095 20.1259 31.7502 20.7673 33.0331L23.8378 30.6565Z" fill="#0BAB7C"/>
<path d="M29.2217 38.249C31.777 38.249 33.9222 37.4078 35.489 35.9566L32.5026 33.6431C31.7034 34.2004 30.6308 34.5895 29.2217 34.5895C26.719 34.5895 24.5949 32.9385 23.8378 30.6565L20.7778 33.0331C22.3341 36.1248 25.5203 38.249 29.2217 38.249Z" fill="#0BAB7C"/>
<path d="M28.964 22.6596C30.7411 22.6596 31.9398 23.4272 32.6233 24.0687L35.2943 21.4607C33.6539 19.9359 31.5192 19 28.964 19C25.2625 19 22.0658 21.1242 20.5095 24.2159L23.5695 26.5925C24.3371 24.3106 26.4613 22.6596 28.964 22.6596Z" fill="#0BAB7C"/>
<path d="M38.0493 28.6747C38.0493 27.8965 37.9862 27.3286 37.8495 26.7397H28.9639V30.2521H34.1796C34.0745 31.1249 33.5066 32.4394 32.2448 33.3227L35.2312 35.6363C37.0188 33.9853 38.0493 31.5561 38.0493 28.6747Z" fill="#0BAB7C"/>
<path d="M23.58 30.3362C23.3802 29.7473 23.2645 29.1163 23.2645 28.4644C23.2645 27.8124 23.3802 27.1814 23.5695 26.5925L20.5095 24.2159C19.8681 25.4989 19.5 26.9395 19.5 28.4644C19.5 29.9892 19.868 31.4299 20.5095 32.7128L23.58 30.3362Z" fill="#0BAB7C"/>
<path d="M28.9639 37.9287C31.5192 37.9287 33.6644 37.0875 35.2312 35.6363L32.2448 33.3227C31.4456 33.8801 30.373 34.2692 28.9639 34.2692C26.4612 34.2692 24.3371 32.6182 23.58 30.3362L20.52 32.7128C22.0763 35.8045 25.2625 37.9287 28.9639 37.9287Z" fill="#0BAB7C"/>
</svg>
