<svg width="57" height="56" viewBox="0 0 57 56" fill="none" xmlns="http://www.w3.org/2000/svg">
<rect x="1" y="0.5" width="55" height="55" rx="19.5" stroke="#0BAB7C"/>
<path d="M24.1348 27.9458C24.1348 25.7467 25.918 23.9635 28.1183 23.9635C30.3185 23.9635 32.1027 25.7467 32.1027 27.9458C32.1027 30.1449 30.3185 31.9281 28.1183 31.9281C25.918 31.9281 24.1348 30.1449 24.1348 27.9458ZM21.9809 27.9458C21.9809 31.3336 24.7286 34.0798 28.1183 34.0798C31.5079 34.0798 34.2556 31.3336 34.2556 27.9458C34.2556 24.558 31.5079 21.8118 28.1183 21.8118C24.7286 21.8118 21.9809 24.558 21.9809 27.9458ZM33.0643 21.5686C33.0642 21.8521 33.1482 22.1293 33.3057 22.3651C33.4632 22.6009 33.6871 22.7847 33.9492 22.8933C34.2112 23.0019 34.4996 23.0304 34.7778 22.9752C35.0561 22.92 35.3117 22.7836 35.5124 22.5832C35.713 22.3828 35.8497 22.1274 35.9052 21.8494C35.9606 21.5713 35.9323 21.2831 35.8239 21.0211C35.7154 20.7591 35.5317 20.5352 35.2959 20.3775C35.0601 20.2199 34.7828 20.1357 34.4992 20.1356H34.4986C34.1183 20.1358 33.7537 20.2868 33.4848 20.5555C33.2159 20.8242 33.0646 21.1885 33.0643 21.5686ZM23.2896 37.6694C22.1243 37.6164 21.4909 37.4224 21.07 37.2585C20.512 37.0413 20.1138 36.7827 19.6952 36.3649C19.2766 35.9471 19.0174 35.5495 18.8012 34.9918C18.6371 34.5713 18.443 33.9381 18.39 32.7734C18.3321 31.5143 18.3205 31.136 18.3205 27.9459C18.3205 24.7558 18.333 24.3786 18.39 23.1184C18.4431 21.9537 18.6386 21.3217 18.8012 20.9C19.0184 20.3423 19.2771 19.9443 19.6952 19.5259C20.1132 19.1075 20.511 18.8485 21.07 18.6324C21.4907 18.4684 22.1243 18.2744 23.2896 18.2214C24.5494 18.1635 24.9279 18.152 28.1183 18.152C31.3087 18.152 31.6875 18.1645 32.9484 18.2214C34.1137 18.2745 34.746 18.4699 35.168 18.6324C35.726 18.8485 36.1242 19.1081 36.5428 19.5259C36.9614 19.9437 37.2196 20.3423 37.4368 20.9C37.6009 21.3205 37.795 21.9537 37.848 23.1184C37.9059 24.3786 37.9175 24.7558 37.9175 27.9459C37.9175 31.136 37.9059 31.5132 37.848 32.7734C37.7949 33.9381 37.5999 34.5711 37.4368 34.9918C37.2196 35.5495 36.9608 35.9475 36.5428 36.3649C36.1248 36.7823 35.726 37.0413 35.168 37.2585C34.7473 37.4225 34.1137 37.6165 32.9484 37.6694C31.6886 37.7273 31.3101 37.7389 28.1183 37.7389C24.9264 37.7389 24.549 37.7273 23.2896 37.6694ZM23.1906 16.0723C21.9182 16.1303 21.0488 16.3319 20.2895 16.6272C19.5031 16.9322 18.8374 17.3413 18.1722 18.0051C17.507 18.6689 17.0987 19.3353 16.7936 20.1212C16.4981 20.8806 16.2963 21.7491 16.2384 23.0208C16.1795 24.2945 16.166 24.7017 16.166 27.9458C16.166 31.1899 16.1795 31.5971 16.2384 32.8708C16.2963 34.1426 16.4981 35.011 16.7936 35.7704C17.0987 36.5559 17.5071 37.223 18.1722 37.8865C18.8373 38.55 19.5031 38.9586 20.2895 39.2644C21.0502 39.5597 21.9182 39.7613 23.1906 39.8193C24.4657 39.8772 24.8724 39.8916 28.1183 39.8916C31.3641 39.8916 31.7716 39.8781 33.046 39.8193C34.3184 39.7613 35.1873 39.5597 35.9471 39.2644C36.733 38.9586 37.3992 38.5503 38.0644 37.8865C38.7296 37.2227 39.137 36.5559 39.443 35.7704C39.7385 35.011 39.9412 34.1425 39.9982 32.8708C40.0561 31.5962 40.0696 31.1899 40.0696 27.9458C40.0696 24.7017 40.0561 24.2945 39.9982 23.0208C39.9402 21.749 39.7385 20.8801 39.443 20.1212C39.137 19.3357 38.7285 18.6699 38.0644 18.0051C37.4002 17.3402 36.733 16.9322 35.9481 16.6272C35.1873 16.3319 34.3183 16.1293 33.0469 16.0723C31.7725 16.0144 31.3651 16 28.1192 16C24.8734 16 24.4657 16.0135 23.1906 16.0723Z" fill="#0BAB7C"/>
</svg>
